<?xml version="1.0" standalone="no"?><!DOCTYPE svg PUBLIC "-//W3C//DTD SVG 1.1//EN" "http://www.w3.org/Graphics/SVG/1.1/DTD/svg11.dtd"><svg width="200" height="200" viewBox="0 0 200 200" version="1.1" xmlns="http://www.w3.org/2000/svg" xmlns:xlink="http://www.w3.org/1999/xlink"><defs><style type="text/css"><![CDATA[
@font-face { font-family: ifont; src: url("//at.alicdn.com/t/font_1442373896_4754455.eot?#iefix") format("embedded-opentype"), url("//at.alicdn.com/t/font_1442373896_4754455.woff") format("woff"), url("//at.alicdn.com/t/font_1442373896_4754455.ttf") format("truetype"), url("//at.alicdn.com/t/font_1442373896_4754455.svg#ifont") format("svg"); }

]]></style></defs><g class="transform-group"><g transform="scale(0.1953125, 0.1953125)"><path d="M512 0C229.376 0 0 229.376 0 512s229.376 512 512 512 512-229.376 512-512S794.624 0 512 0zM510.976 989.525333c-263.850667 0-477.866667-214.016-477.866667-477.866667s214.016-477.866667 477.866667-477.866667 477.866667 214.016 477.866667 477.866667S774.826667 989.525333 510.976 989.525333zM175.445333 535.552c-27.989333 65.877333-32.426667 128.682667-10.24 140.288 15.36 8.192 39.594667-10.24 62.464-44.032 8.874667 36.864 31.402667 69.973333 63.146667 96.938667-33.450667 12.288-54.954667 32.426667-54.954667 55.296 0 37.546667 59.050667 67.584 131.754667 67.584 65.536 0 119.808-24.576 130.048-57.002667 2.730667 0 12.970667 0 15.701333 0 10.24 32.426667 64.512 57.002667 130.048 57.002667 72.704 0 131.754667-30.378667 131.754667-67.584 0-22.869333-21.845333-43.008-54.954667-55.296 31.744-26.624 53.930667-60.074667 63.146667-96.938667 22.869333 33.792 46.762667 52.224 62.464 44.032 22.528-11.605333 18.090667-74.752-9.898667-140.288-21.845333-51.882667-51.882667-89.770667-74.752-98.304 0.341333-3.413333 0.341333-6.826667 0.341333-9.898667 0-20.138667-5.461333-38.570667-15.018667-53.589333 0-1.024 0-2.389333 0-3.413333 0-9.216-2.048-17.749333-5.802667-25.258667-5.802667-134.485333-93.184-241.322667-234.837333-241.322667-141.653333 0-229.376 106.837333-234.837333 241.322667-3.754667 7.509333-5.802667 16.042667-5.802667 25.258667 0 1.024 0 2.389333 0 3.413333-9.557333 15.018667-15.018667 33.450667-15.018667 53.589333 0 3.413333 0 6.826667 0.341333 9.898667C227.328 446.122667 197.290667 484.010667 175.445333 535.552L175.445333 535.552z" fill="#272636"></path></g></g></svg>